<?xml version="1.0" encoding="UTF-8"?>
<svg width="224px" height="168px" viewBox="0 0 224 168" version="1.1" xmlns="http://www.w3.org/2000/svg" xmlns:xlink="http://www.w3.org/1999/xlink">
    <title>face_sleep</title>
    <g id="face_sleep" stroke="none" stroke-width="1" fill="none" fill-rule="evenodd">
        <path d="M175.57108,58.7499286 C175.591801,59.080622 175.602317,59.4140829 175.602317,59.75 C175.602317,68.4484848 168.550802,75.5 159.852317,75.5 C151.153832,75.5 144.102317,68.4484848 144.102317,59.75 C144.102317,59.4140829 144.112833,59.080622 144.133555,58.7499286 C144.649403,66.9825978 151.48975,73.5 159.852317,73.5 C168.126486,73.5 174.910446,67.1196582 175.552607,59.0105646 Z" id="Combined-Shape" fill="#000000"></path>
        <path d="M86.4538209,91.5703913 C88.8604574,93.4252693 90.882859,95.756342 97.1646366,95.756342 C103.446414,95.756342 110.103159,90.1952723 112.174392,90.1952723 C114.245625,90.1952723 120.902371,95.756342 127.184148,95.756342 C133.465926,95.756342 135.488327,93.4252693 137.894964,91.5703913" id="mouse" stroke="#010011"></path>
        <path d="M112.174392,75.2375117 C110.363049,75.2375117 108.824397,75.2741479 108.824397,73.960946 C108.824397,72.6477442 111.156855,72.7167483 112.174392,72.7167483 C113.19193,72.7167483 115.524388,72.6477442 115.524388,73.960946 C115.524388,75.2741479 113.985735,75.2375117 112.174392,75.2375117" id="nose" fill="#000000"></path>
        <ellipse id="rightCheek" fill="#ED370E" transform="translate(181.354696, 100.574640) rotate(32.000000) translate(-181.354696, -100.574640) " cx="181.354696" cy="100.57464" rx="15.75" ry="20.25"></ellipse>
        <ellipse id="leftCheek" fill="#ED370E" transform="translate(45.000000, 98.359619) scale(-1, 1) rotate(32.000000) translate(-45.000000, -98.359619) " cx="45" cy="98.3596187" rx="17" ry="20.25"></ellipse>
        <path d="M81.5710799,58.7499286 C81.591801,59.080622 81.6023173,59.4140829 81.6023173,59.75 C81.6023173,68.4484848 74.5508021,75.5 65.8523173,75.5 C57.1538325,75.5 50.1023173,68.4484848 50.1023173,59.75 C50.1023173,59.4140829 50.1128335,59.080622 50.1335546,58.7499286 C50.6494027,66.9825978 57.4897496,73.5 65.8523173,73.5 C74.1264857,73.5 80.9104455,67.1196582 81.5526066,59.0105646 Z" id="Combined-Shape" fill="#000000"></path>
    </g>
</svg>