<?xml version="1.0" encoding="UTF-8"?>
<svg width="224px" height="168px" viewBox="0 0 224 168" version="1.1" xmlns="http://www.w3.org/2000/svg" xmlns:xlink="http://www.w3.org/1999/xlink">
    <title>face_normal</title>
    <g id="face_normal" stroke="none" stroke-width="1" fill="none" fill-rule="evenodd">
        <path d="M86,90.375119 C88.4066365,92.2299971 90.4290381,94.5610698 96.7108157,94.5610698 C102.992593,94.5610698 109.649339,89 111.720571,89 C113.791804,89 120.44855,94.5610698 126.730327,94.5610698 C133.012105,94.5610698 135.034506,92.2299971 137.441143,90.375119" id="mouse" stroke="#010011"></path>
        <path d="M111.349995,74.5213875 C109.538652,74.5213875 108,74.5580236 108,73.2448218 C108,71.93162 110.332458,72.0006241 111.349995,72.0006241 C112.367533,72.0006241 114.69999,71.93162 114.69999,73.2448218 C114.69999,74.5580236 113.161338,74.5213875 111.349995,74.5213875" id="nose" fill="#000000"></path>
        <ellipse id="rightCheek" fill="#ED370E" transform="translate(180.750000, 99.250000) rotate(32.000000) translate(-180.750000, -99.250000) " cx="180.75" cy="99.25" rx="15.75" ry="20.25"></ellipse>
        <ellipse id="leftCheek" fill="#ED370E" transform="translate(44.000000, 97.250000) scale(-1, 1) rotate(32.000000) translate(-44.000000, -97.250000) " cx="44" cy="97.25" rx="17" ry="20.25"></ellipse>
        <circle id="rightBlackEye" fill="#000000" cx="158.75" cy="58.75" r="15.75"></circle>
        <circle id="leftBlackEye" fill="#000000" cx="64.75" cy="58.75" r="15.75"></circle>
        <circle id="rightWhiteEye" fill="#FFFFFF" cx="154" cy="54" r="9"></circle>
        <circle id="leftWhiteEye" fill="#FFFFFF" cx="69" cy="54" r="9"></circle>
    </g>
</svg>